<svg width="14" height="15" viewBox="0 0 14 15" fill="none" xmlns="http://www.w3.org/2000/svg">
<path d="M11.3538 3.02828H10.3333C10.2239 2.21726 9.82752 1.47228 9.21606 0.92837C8.60461 0.384462 7.81851 0.0776246 7.00027 0.0634766C6.18203 0.0776246 5.39594 0.384462 4.78448 0.92837C4.17303 1.47228 3.77668 2.21726 3.66727 3.02828H2.64727C2.08606 3.02865 1.54793 3.2517 1.15102 3.64846C0.754109 4.04522 0.530856 4.58327 0.530273 5.14448V12.86C0.530776 13.4211 0.753878 13.9591 1.15062 14.356C1.54736 14.7528 2.08533 14.976 2.64647 14.9767H11.3535C11.9147 14.9762 12.4528 14.753 12.8497 14.3562C13.2466 13.9593 13.4698 13.4212 13.4703 12.86V5.14448C13.4697 4.58335 13.2465 4.04538 12.8497 3.64863C12.4529 3.25189 11.9149 3.02878 11.3538 3.02828ZM7.00027 1.16308C7.52768 1.17454 8.03539 1.36565 8.43946 1.7048C8.84352 2.04395 9.11975 2.51084 9.22247 3.02828H4.77807C4.8808 2.51084 5.15702 2.04395 5.56109 1.7048C5.96516 1.36565 6.47286 1.17454 7.00027 1.16308ZM12.3703 12.86C12.37 13.1296 12.2628 13.388 12.0722 13.5787C11.8817 13.7693 11.6232 13.8767 11.3537 13.8771H2.64677C2.37722 13.8766 2.11883 13.7693 1.92828 13.5786C1.73773 13.388 1.63056 13.1295 1.63027 12.86V5.14448C1.63059 4.87496 1.7378 4.61656 1.92838 4.42598C2.11896 4.2354 2.37735 4.12819 2.64687 4.12788H11.3539C11.6234 4.12825 11.8817 4.23548 12.0722 4.42605C12.2628 4.61663 12.37 4.87499 12.3703 5.14448V12.86Z" fill="white"/>
</svg>
