<svg width="15" height="15" viewBox="0 0 15 15" fill="none" xmlns="http://www.w3.org/2000/svg">
<path d="M14.2982 13.202L10.4282 9.33195C11.1292 8.40295 11.5502 7.25095 11.5502 5.99995C11.5502 2.93995 9.0612 0.449951 6.0002 0.449951C2.9402 0.449951 0.450195 2.93995 0.450195 5.99995C0.450195 9.06095 2.9402 11.55 6.0002 11.55C7.2512 11.55 8.4032 11.129 9.3322 10.428L13.2022 14.298C13.3532 14.449 13.5522 14.526 13.7502 14.526C13.9482 14.526 14.1462 14.45 14.2982 14.298C14.6012 13.995 14.6012 13.505 14.2982 13.202ZM1.5502 5.99995C1.5502 3.54595 3.5472 1.54995 6.0002 1.54995C8.4542 1.54995 10.4502 3.54695 10.4502 5.99995C10.4502 8.45295 8.4542 10.45 6.0002 10.45C3.5462 10.45 1.5502 8.45395 1.5502 5.99995Z" fill="white"/>
</svg>
